{
    "accessors" : [
        {
            "bufferView" : 0, 
            "componentType" : 5123, 
            "count" : 5640, 
            "max" : [
                1443
            ], 
            "min" : [
                0
            ], 
            "type" : "SCALAR"
        }, 
        {
            "bufferView" : 1, 
            "componentType" : 5126, 
            "count" : 1444, 
            "max" : [
                6.319498062133789, 
                1.7020399570465088, 
                -0.02190004661679268
            ], 
            "min" : [
                -6.319679260253906, 
                -1.7020851373672485, 
                -5.682251930236816
            ], 
            "type" : "VEC3"
        }, 
        {
            "bufferView" : 2, 
            "componentType" : 5126, 
            "count" : 1444, 
            "max" : [
                0.9916074275970459, 
                0.9880062341690063, 
                0.9958800077438354
            ], 
            "min" : [
                -0.9927670955657959, 
                -0.9939573407173157, 
                -0.9961851835250854
            ], 
            "type" : "VEC3"
        }, 
        {
            "bufferView" : 3, 
            "componentType" : 5126, 
            "count" : 1444, 
            "max" : [
                0.9999858736991882, 
                0.9999814629554749, 
                0.9999470710754395, 
                1.0
            ], 
            "min" : [
                -0.8950273394584656, 
                -0.9999312162399292, 
                -0.9999754428863525, 
                1.0
            ], 
            "type" : "VEC4"
        }, 
        {
            "bufferView" : 4, 
            "componentType" : 5126, 
            "count" : 1444, 
            "max" : [
                0.9980079531669617, 
                0.9980746536748484
            ], 
            "min" : [
                0.0019920230843126774, 
                0.03540682792663574
            ], 
            "type" : "VEC2"
        }
    ], 
    "asset" : {
        "generator" : "Khronos Blender glTF 2.0 exporter", 
        "version" : "2.0"
    }, 
    "bufferViews" : [
        {
            "buffer" : 0, 
            "byteLength" : 11280, 
            "byteOffset" : 0, 
            "target" : 34963
        }, 
        {
            "buffer" : 0, 
            "byteLength" : 17328, 
            "byteOffset" : 11280, 
            "target" : 34962
        }, 
        {
            "buffer" : 0, 
            "byteLength" : 17328, 
            "byteOffset" : 28608, 
            "target" : 34962
        }, 
        {
            "buffer" : 0, 
            "byteLength" : 23104, 
            "byteOffset" : 45936, 
            "target" : 34962
        }, 
        {
            "buffer" : 0, 
            "byteLength" : 11552, 
            "byteOffset" : 69040, 
            "target" : 34962
        }
    ], 
    "buffers" : [
        {
            "byteLength" : 80592, 
            "uri" : "benchEXP.bin"
        }
    ], 
    "materials" : [
        {
            "name" : "blinn1", 
            "pbrMetallicRoughness" : {
                "baseColorFactor" : [
                    0.800000011920929, 
                    0.800000011920929, 
                    0.800000011920929, 
                    1.0
                ], 
                "metallicFactor" : 0.0
            }
        }
    ], 
    "meshes" : [
        {
            "name" : "Untitled", 
            "primitives" : [
                {
                    "attributes" : {
                        "NORMAL" : 2, 
                        "POSITION" : 1, 
                        "TANGENT" : 3, 
                        "TEXCOORD_0" : 4
                    }, 
                    "indices" : 0, 
                    "material" : 0
                }
            ]
        }
    ], 
    "nodes" : [
        {
            "mesh" : 0, 
            "name" : "benchMesh", 
            "rotation" : [
                0.7071068286895752, 
                0.0, 
                -0.0, 
                0.7071067094802856
            ]
        }
    ], 
    "scene" : 0, 
    "scenes" : [
        {
            "name" : "Scene", 
            "nodes" : [
                0
            ]
        }
    ]
}
